{"scene":0,"asset":{"generator":"ImageToStl.com","version":"2.0"},"scenes":[{"name":"Scene","nodes":[0]}],"nodes":[{"name":"Node0","children":[1,2,3,4]},{"name":"Node1","mesh":0,"NodeMesh":{"CalculatedWidth":3208791.75,"CalculatedHeight":1069597.25,"CalculatedDepth":0,"MaxDimension":3208791.75}},{"name":"Node2","mesh":1,"NodeMesh":{"CalculatedWidth":2139194.5,"CalculatedHeight":2139194.5,"CalculatedDepth":0,"MaxDimension":2139194.5}},{"name":"Node3","mesh":2,"NodeMesh":{"CalculatedWidth":3141942,"CalculatedHeight":1136447.125,"CalculatedDepth":0,"MaxDimension":3141942}},{"name":"Node4","mesh":3,"NodeMesh":{"CalculatedWidth":3275641.625,"CalculatedHeight":1002747.5,"CalculatedDepth":0,"MaxDimension":3275641.625}}],"materials":[{"name":"CCCCCCCC","pbrMetallicRoughness":{"baseColorFactor":[0.8,0.8,0.8,0.8],"metallicFactor":0,"roughnessFactor":1},"alphaMode":"BLEND","doubleSided":true}],"meshes":[{"name":"Mesh0","primitives":[{"indices":1,"material":0,"attributes":{"POSITION":0}}]},{"name":"Mesh0","primitives":[{"indices":3,"material":0,"attributes":{"POSITION":2}}]},{"name":"Mesh0","primitives":[{"indices":5,"material":0,"attributes":{"POSITION":4}}]},{"name":"Mesh0","primitives":[{"indices":7,"material":0,"attributes":{"POSITION":6}}]}],"accessors":[{"bufferView":0,"componentType":5126,"count":7,"type":"VEC3","min":[1069597.2,0,0],"max":[2139194.5,1069597.2,0]},{"bufferView":1,"componentType":5123,"count":15,"type":"SCALAR"},{"bufferView":2,"componentType":5126,"count":6,"type":"VEC3","min":[0,0,0],"max":[2139194.5,2139194.5,0]},{"bufferView":3,"componentType":5123,"count":12,"type":"SCALAR"},{"bufferView":4,"componentType":5126,"count":7,"type":"VEC3","min":[1002747.5,0,0],"max":[2139194.5,1136447.1,0]},{"bufferView":5,"componentType":5123,"count":15,"type":"SCALAR"},{"bufferView":6,"componentType":5126,"count":4,"type":"VEC3","min":[1136447.1,0,0],"max":[2139194.5,1002747.5,0]},{"bufferView":7,"componentType":5123,"count":6,"type":"SCALAR"}],"bufferViews":[{"buffer":0,"byteLength":84,"byteOffset":0},{"buffer":0,"byteLength":30,"byteOffset":84},{"buffer":0,"byteLength":72,"byteOffset":116},{"buffer":0,"byteLength":24,"byteOffset":188},{"buffer":0,"byteLength":84,"byteOffset":212},{"buffer":0,"byteLength":30,"byteOffset":296},{"buffer":0,"byteLength":48,"byteOffset":328},{"buffer":0,"byteLength":12,"byteOffset":376}],"buffers":[{"byteLength":388,"uri":"data:application/octet-stream;base64,\u002BbmKSQAAAAAAAAAA6pCCSdAFkC7qkILJ6pCCSQAAAAAAAAAA\u002BbmKSXQFhy64z3TJ8h\u002BxSdAFkC7qkILJ6pACSnQFhy64z3TJ6pACStAFkC7qkILJAAABAAIAAQAAAAMAAwAEAAEABAADAAUABAAFAAYAAAC4z3RJAAAAAAAAAAAAAAAA0AUQL\u002BqQAsoAAAAAAAAAAAAAAAC4z3RJLQaZLvm5isnqkAJK0AUQL\u002BqQAsrqkAJKLQaZLvm5iskAAAEAAgABAAAAAwABAAMABAAEAAMABQDqkIJJAAAAAAAAAAC4z3RJLQaZLvm5ism4z3RJAAAAAAAAAADqkIJJ0AWQLuqQgsnqkAJKLQaZLvm5isnyH7FJ0AWQLuqQgsnqkAJK0AWQLuqQgskAAAEAAgABAAAAAwABAAMABAAEAAMABQAEAAUABgAAAPm5ikkAAAAAAAAAAOqQAkp0BYcuuM90yfm5ikl0BYcuuM90yeqQAkoAAAAAAAAAAAAAAQACAAEAAAADAA=="}]}