{"scene":0,"asset":{"generator":"ImageToStl.com","version":"2.0"},"scenes":[{"name":"Scene","nodes":[0]}],"nodes":[{"name":"Node0","children":[1]},{"name":"Node1","mesh":0,"NodeMesh":{"CalculatedWidth":2139194.5,"CalculatedHeight":2139194.5,"CalculatedDepth":83854.8828125,"MaxDimension":2139194.5}}],"materials":[{"name":"FFCCCC00","pbrMetallicRoughness":{"baseColorFactor":[0,0.8,0.8,1],"metallicFactor":0,"roughnessFactor":1},"doubleSided":true}],"meshes":[{"name":"Mesh0","primitives":[{"indices":1,"material":0,"attributes":{"POSITION":0}}]}],"accessors":[{"bufferView":0,"componentType":5126,"count":4,"type":"VEC3","min":[0,-5.519494E-11,-41927.44],"max":[2139194.5,2139194.5,-41927.44]},{"bufferView":1,"componentType":5123,"count":6,"type":"SCALAR"}],"bufferViews":[{"buffer":0,"byteLength":48,"byteOffset":0},{"buffer":0,"byteLength":12,"byteOffset":48}],"buffers":[{"byteLength":60,"uri":"data:application/octet-stream;base64,"}]}