{"scene":0,"asset":{"generator":"ImageToStl.com","version":"2.0"},"scenes":[{"name":"Scene","nodes":[0]}],"nodes":[{"name":"Node0","children":[1,2,3,4]},{"name":"Node1","mesh":0,"NodeMesh":{"CalculatedWidth":2206044.375,"CalculatedHeight":2139194.5,"CalculatedDepth":0,"MaxDimension":2206044.375}},{"name":"Node2","mesh":1,"NodeMesh":{"CalculatedWidth":1002747.5,"CalculatedHeight":2139194.5,"CalculatedDepth":0,"MaxDimension":2139194.5}},{"name":"Node3","mesh":2,"NodeMesh":{"CalculatedWidth":2072344.75,"CalculatedHeight":2139194.5,"CalculatedDepth":0,"MaxDimension":2139194.5}},{"name":"Node4","mesh":3,"NodeMesh":{"CalculatedWidth":3275641.625,"CalculatedHeight":2139194.5,"CalculatedDepth":0,"MaxDimension":3275641.625}}],"materials":[{"name":"CCCCCCCC","pbrMetallicRoughness":{"baseColorFactor":[0.8,0.8,0.8,0.8],"metallicFactor":0,"roughnessFactor":1},"alphaMode":"BLEND","doubleSided":true}],"meshes":[{"name":"Mesh0","primitives":[{"indices":1,"material":0,"attributes":{"POSITION":0}}]},{"name":"Mesh0","primitives":[{"indices":3,"material":0,"attributes":{"POSITION":2}}]},{"name":"Mesh0","primitives":[{"indices":5,"material":0,"attributes":{"POSITION":4}}]},{"name":"Mesh0","primitives":[{"indices":7,"material":0,"attributes":{"POSITION":6}}]}],"accessors":[{"bufferView":0,"componentType":5126,"count":4,"type":"VEC3","min":[1069597.2,0,0],"max":[1136447.1,2139194.5,0]},{"bufferView":1,"componentType":5123,"count":6,"type":"SCALAR"},{"bufferView":2,"componentType":5126,"count":4,"type":"VEC3","min":[0,0,0],"max":[1002747.5,2139194.5,0]},{"bufferView":3,"componentType":5123,"count":6,"type":"SCALAR"},{"bufferView":4,"componentType":5126,"count":4,"type":"VEC3","min":[1002747.5,0,0],"max":[1069597.2,2139194.5,0]},{"bufferView":5,"componentType":5123,"count":6,"type":"SCALAR"},{"bufferView":6,"componentType":5126,"count":4,"type":"VEC3","min":[1136447.1,0,0],"max":[2139194.5,2139194.5,0]},{"bufferView":7,"componentType":5123,"count":6,"type":"SCALAR"}],"bufferViews":[{"buffer":0,"byteLength":48,"byteOffset":0},{"buffer":0,"byteLength":12,"byteOffset":48},{"buffer":0,"byteLength":48,"byteOffset":60},{"buffer":0,"byteLength":12,"byteOffset":108},{"buffer":0,"byteLength":48,"byteOffset":120},{"buffer":0,"byteLength":12,"byteOffset":168},{"buffer":0,"byteLength":48,"byteOffset":180},{"buffer":0,"byteLength":12,"byteOffset":228}],"buffers":[{"byteLength":240,"uri":"data:application/octet-stream;base64,\u002BbmKSQAAAAAAAAAA6pCCSdAFEC/qkALK6pCCSQAAAAAAAAAA\u002BbmKSdAFEC/qkALKAAABAAIAAQAAAAMAuM90SQAAAAAAAAAAAAAAANAFEC/qkALKAAAAAAAAAAAAAAAAuM90SdAFEC/qkALKAAABAAIAAQAAAAMA6pCCSQAAAAAAAAAAuM90SdAFEC/qkALKuM90SQAAAAAAAAAA6pCCSdAFEC/qkALKAAABAAIAAQAAAAMA6pACSgAAAAAAAAAA\u002BbmKSdAFEC/qkALK\u002BbmKSQAAAAAAAAAA6pACStAFEC/qkALKAAABAAIAAQAAAAMA"}]}