{"scene":0,"asset":{"generator":"ImageToStl.com","version":"2.0"},"scenes":[{"name":"Scene","nodes":[0]}],"nodes":[{"name":"Node0","children":[1,2,3,4,5,6,7,8,9,10,11,12,13,14,15,16,17,18,19,20,21]},{"name":"Node1","mesh":0,"NodeMesh":{"CalculatedWidth":3342491.5,"CalculatedHeight":935897.625,"CalculatedDepth":0,"MaxDimension":3342491.5}},{"name":"Node2","mesh":1,"NodeMesh":{"CalculatedWidth":3005741.9375,"CalculatedHeight":1295799.625,"CalculatedDepth":0,"MaxDimension":3005741.9375}},{"name":"Node3","mesh":2,"NodeMesh":{"CalculatedWidth":1733094.875,"CalculatedHeight":1295799.625,"CalculatedDepth":139854.296875,"MaxDimension":1733094.875}},{"name":"Node4","mesh":3,"NodeMesh":{"CalculatedWidth":3005741.9375,"CalculatedHeight":2591599.25,"CalculatedDepth":139854.296875,"MaxDimension":3005741.9375}},{"name":"Node5","mesh":4,"NodeMesh":{"CalculatedWidth":2139194.5,"CalculatedHeight":2139194.5,"CalculatedDepth":279708.59375,"MaxDimension":2139194.5}},{"name":"Node6","mesh":5,"NodeMesh":{"CalculatedWidth":3471176.75,"CalculatedHeight":795186.625,"CalculatedDepth":444392.59375,"MaxDimension":3471176.75}},{"name":"Node7","mesh":6,"NodeMesh":{"CalculatedWidth":4278389,"CalculatedHeight":795186.625,"CalculatedDepth":371230.96875,"MaxDimension":4278389}},{"name":"Node8","mesh":7,"NodeMesh":{"CalculatedWidth":3471176.75,"CalculatedHeight":1590373.25,"CalculatedDepth":222196.296875,"MaxDimension":3471176.75}},{"name":"Node9","mesh":8,"NodeMesh":{"CalculatedWidth":2663964.5,"CalculatedHeight":795186.625,"CalculatedDepth":222196.296875,"MaxDimension":2663964.5}},{"name":"Node10","mesh":9,"NodeMesh":{"CalculatedWidth":2668978.875,"CalculatedHeight":0,"CalculatedDepth":222196.296875,"MaxDimension":2668978.875}},{"name":"Node11","mesh":10,"NodeMesh":{"CalculatedWidth":3476191.125,"CalculatedHeight":0,"CalculatedDepth":371230.96875,"MaxDimension":3476191.125}},{"name":"Node12","mesh":11,"NodeMesh":{"CalculatedWidth":3906689.375,"CalculatedHeight":366162.15625,"CalculatedDepth":742461.9375,"MaxDimension":3906689.375}},{"name":"Node13","mesh":12,"NodeMesh":{"CalculatedWidth":3906689.375,"CalculatedHeight":732324.3125,"CalculatedDepth":695740.0625,"MaxDimension":3906689.375}},{"name":"Node14","mesh":13,"NodeMesh":{"CalculatedWidth":3534989.75,"CalculatedHeight":366162.15625,"CalculatedDepth":695740.0625,"MaxDimension":3534989.75}},{"name":"Node15","mesh":14,"NodeMesh":{"CalculatedWidth":3709179.375,"CalculatedHeight":560729.75,"CalculatedDepth":649018.1875,"MaxDimension":3709179.375}},{"name":"Node16","mesh":15,"NodeMesh":{"CalculatedWidth":3709179.375,"CalculatedHeight":1121459.5,"CalculatedDepth":613502.21875,"MaxDimension":3709179.375}},{"name":"Node17","mesh":16,"NodeMesh":{"CalculatedWidth":3139969.75,"CalculatedHeight":560729.75,"CalculatedDepth":613502.21875,"MaxDimension":3139969.75}},{"name":"Node18","mesh":17,"NodeMesh":{"CalculatedWidth":3551428.75,"CalculatedHeight":716130.125,"CalculatedDepth":577986.25,"MaxDimension":3551428.75}},{"name":"Node19","mesh":18,"NodeMesh":{"CalculatedWidth":3551428.75,"CalculatedHeight":1432260.25,"CalculatedDepth":511189.421875,"MaxDimension":3551428.75}},{"name":"Node20","mesh":19,"NodeMesh":{"CalculatedWidth":2824468.5,"CalculatedHeight":716130.125,"CalculatedDepth":511189.421875,"MaxDimension":2824468.5}},{"name":"Node21","mesh":20,"NodeMesh":{"CalculatedWidth":3075092.125,"CalculatedHeight":1203297,"CalculatedDepth":0,"MaxDimension":3075092.125}}],"materials":[{"name":"FF99CCFF","pbrMetallicRoughness":{"baseColorFactor":[1,0.8,0.6,1],"metallicFactor":0,"roughnessFactor":1},"doubleSided":true},{"name":"CCCCCCCC","pbrMetallicRoughness":{"baseColorFactor":[0.8,0.8,0.8,0.8],"metallicFactor":0,"roughnessFactor":1},"alphaMode":"BLEND","doubleSided":true},{"name":"FF437A5A","pbrMetallicRoughness":{"baseColorFactor":[0.3529412,0.47843137,0.2627451,1],"metallicFactor":0,"roughnessFactor":1},"doubleSided":true},{"name":"FF8B8884","pbrMetallicRoughness":{"baseColorFactor":[0.5176471,0.53333336,0.54509807,1],"metallicFactor":0,"roughnessFactor":1},"doubleSided":true}],"meshes":[{"name":"Mesh0","primitives":[{"indices":1,"material":0,"attributes":{"POSITION":0}}]},{"name":"Mesh0","primitives":[{"indices":3,"material":0,"attributes":{"POSITION":2}}]},{"name":"Mesh0","primitives":[{"indices":5,"material":1,"attributes":{"POSITION":4}}]},{"name":"Mesh0","primitives":[{"indices":7,"material":1,"attributes":{"POSITION":6}}]},{"name":"Mesh0","primitives":[{"indices":9,"material":2,"attributes":{"POSITION":8}}]},{"name":"Mesh0","primitives":[{"indices":11,"material":2,"attributes":{"POSITION":10}}]},{"name":"Mesh0","primitives":[{"indices":13,"material":2,"attributes":{"POSITION":12}}]},{"name":"Mesh0","primitives":[{"indices":15,"material":3,"attributes":{"POSITION":14}}]},{"name":"Mesh0","primitives":[{"indices":17,"material":3,"attributes":{"POSITION":16}}]},{"name":"Mesh0","primitives":[{"indices":19,"material":2,"attributes":{"POSITION":18}}]},{"name":"Mesh0","primitives":[{"indices":21,"material":2,"attributes":{"POSITION":20}}]},{"name":"Mesh0","primitives":[{"indices":23,"material":2,"attributes":{"POSITION":22}}]},{"name":"Mesh0","primitives":[{"indices":25,"material":2,"attributes":{"POSITION":24}}]},{"name":"Mesh0","primitives":[{"indices":27,"material":2,"attributes":{"POSITION":26}}]},{"name":"Mesh0","primitives":[{"indices":29,"material":2,"attributes":{"POSITION":28}}]},{"name":"Mesh0","primitives":[{"indices":31,"material":2,"attributes":{"POSITION":30}}]},{"name":"Mesh0","primitives":[{"indices":33,"material":2,"attributes":{"POSITION":32}}]},{"name":"Mesh0","primitives":[{"indices":35,"material":2,"attributes":{"POSITION":34}}]},{"name":"Mesh0","primitives":[{"indices":37,"material":2,"attributes":{"POSITION":36}}]},{"name":"Mesh0","primitives":[{"indices":39,"material":2,"attributes":{"POSITION":38}}]},{"name":"Mesh0","primitives":[{"indices":41,"material":3,"attributes":{"POSITION":40}}]}],"accessors":[{"bufferView":0,"componentType":5126,"count":7,"type":"VEC3","min":[1203297,0,0],"max":[2139194.5,935897.6,0]},{"bufferView":1,"componentType":5123,"count":15,"type":"SCALAR"},{"bufferView":2,"componentType":5126,"count":7,"type":"VEC3","min":[866547.44,0,0],"max":[2139194.5,1295799.6,0]},{"bufferView":3,"componentType":5123,"count":15,"type":"SCALAR"},{"bufferView":4,"componentType":5126,"count":4,"type":"VEC3","min":[866547.44,0,-139854.3],"max":[866547.44,1295799.6,0]},{"bufferView":5,"componentType":5123,"count":6,"type":"SCALAR"},{"bufferView":6,"componentType":5126,"count":4,"type":"VEC3","min":[866547.44,1295799.6,-139854.3],"max":[2139194.5,1295799.6,0]},{"bufferView":7,"componentType":5123,"count":6,"type":"SCALAR"},{"bufferView":8,"componentType":5126,"count":6,"type":"VEC3","min":[0,0,-139854.3],"max":[2139194.5,2139194.5,-139854.3]},{"bufferView":9,"componentType":5123,"count":12,"type":"SCALAR"},{"bufferView":10,"componentType":5126,"count":7,"type":"VEC3","min":[1331982.2,0,222196.3],"max":[2139194.5,795186.6,222196.3]},{"bufferView":11,"componentType":5123,"count":15,"type":"SCALAR"},{"bufferView":12,"componentType":5126,"count":10,"type":"VEC3","min":[2139194.5,0,0],"max":[2139194.5,795186.6,371230.97]},{"bufferView":13,"componentType":5123,"count":24,"type":"SCALAR"},{"bufferView":14,"componentType":5126,"count":4,"type":"VEC3","min":[1331982.2,795186.6,0],"max":[2139194.5,795186.6,222196.3]},{"bufferView":15,"componentType":5123,"count":6,"type":"SCALAR"},{"bufferView":16,"componentType":5126,"count":4,"type":"VEC3","min":[1331982.2,0,0],"max":[1331982.2,795186.6,222196.3]},{"bufferView":17,"componentType":5123,"count":6,"type":"SCALAR"},{"bufferView":18,"componentType":5126,"count":4,"type":"VEC3","min":[1331982.2,0,0],"max":[1336996.6,0,222196.3]},{"bufferView":19,"componentType":5123,"count":6,"type":"SCALAR"},{"bufferView":20,"componentType":5126,"count":10,"type":"VEC3","min":[1336996.6,0,0],"max":[2139194.5,0,371230.97]},{"bufferView":21,"componentType":5123,"count":24,"type":"SCALAR"},{"bufferView":22,"componentType":5126,"count":4,"type":"VEC3","min":[1767494.9,0,371230.97],"max":[2139194.5,366162.16,371230.97]},{"bufferView":23,"componentType":5123,"count":6,"type":"SCALAR"},{"bufferView":24,"componentType":5126,"count":4,"type":"VEC3","min":[1767494.9,366162.16,324509.1],"max":[2139194.5,366162.16,371230.97]},{"bufferView":25,"componentType":5123,"count":6,"type":"SCALAR"},{"bufferView":26,"componentType":5126,"count":4,"type":"VEC3","min":[1767494.9,0,324509.1],"max":[1767494.9,366162.16,371230.97]},{"bufferView":27,"componentType":5123,"count":6,"type":"SCALAR"},{"bufferView":28,"componentType":5126,"count":6,"type":"VEC3","min":[1569984.9,0,324509.1],"max":[2139194.5,560729.75,324509.1]},{"bufferView":29,"componentType":5123,"count":12,"type":"SCALAR"},{"bufferView":30,"componentType":5126,"count":4,"type":"VEC3","min":[1569984.9,560729.75,288993.12],"max":[2139194.5,560729.75,324509.1]},{"bufferView":31,"componentType":5123,"count":6,"type":"SCALAR"},{"bufferView":32,"componentType":5126,"count":4,"type":"VEC3","min":[1569984.9,0,288993.12],"max":[1569984.9,560729.75,324509.1]},{"bufferView":33,"componentType":5123,"count":6,"type":"SCALAR"},{"bufferView":34,"componentType":5126,"count":6,"type":"VEC3","min":[1412234.2,0,288993.12],"max":[2139194.5,716130.1,288993.12]},{"bufferView":35,"componentType":5123,"count":12,"type":"SCALAR"},{"bufferView":36,"componentType":5126,"count":4,"type":"VEC3","min":[1412234.2,716130.1,222196.3],"max":[2139194.5,716130.1,288993.12]},{"bufferView":37,"componentType":5123,"count":6,"type":"SCALAR"},{"bufferView":38,"componentType":5126,"count":4,"type":"VEC3","min":[1412234.2,0,222196.3],"max":[1412234.2,716130.1,288993.12]},{"bufferView":39,"componentType":5123,"count":6,"type":"SCALAR"},{"bufferView":40,"componentType":5126,"count":8,"type":"VEC3","min":[935897.6,0,0],"max":[2139194.5,1203297,0]},{"bufferView":41,"componentType":5123,"count":18,"type":"SCALAR"}],"bufferViews":[{"buffer":0,"byteLength":84,"byteOffset":0},{"buffer":0,"byteLength":30,"byteOffset":84},{"buffer":0,"byteLength":84,"byteOffset":116},{"buffer":0,"byteLength":30,"byteOffset":200},{"buffer":0,"byteLength":48,"byteOffset":232},{"buffer":0,"byteLength":12,"byteOffset":280},{"buffer":0,"byteLength":48,"byteOffset":292},{"buffer":0,"byteLength":12,"byteOffset":340},{"buffer":0,"byteLength":72,"byteOffset":352},{"buffer":0,"byteLength":24,"byteOffset":424},{"buffer":0,"byteLength":84,"byteOffset":448},{"buffer":0,"byteLength":30,"byteOffset":532},{"buffer":0,"byteLength":120,"byteOffset":564},{"buffer":0,"byteLength":48,"byteOffset":684},{"buffer":0,"byteLength":48,"byteOffset":732},{"buffer":0,"byteLength":12,"byteOffset":780},{"buffer":0,"byteLength":48,"byteOffset":792},{"buffer":0,"byteLength":12,"byteOffset":840},{"buffer":0,"byteLength":48,"byteOffset":852},{"buffer":0,"byteLength":12,"byteOffset":900},{"buffer":0,"byteLength":120,"byteOffset":912},{"buffer":0,"byteLength":48,"byteOffset":1032},{"buffer":0,"byteLength":48,"byteOffset":1080},{"buffer":0,"byteLength":12,"byteOffset":1128},{"buffer":0,"byteLength":48,"byteOffset":1140},{"buffer":0,"byteLength":12,"byteOffset":1188},{"buffer":0,"byteLength":48,"byteOffset":1200},{"buffer":0,"byteLength":12,"byteOffset":1248},{"buffer":0,"byteLength":72,"byteOffset":1260},{"buffer":0,"byteLength":24,"byteOffset":1332},{"buffer":0,"byteLength":48,"byteOffset":1356},{"buffer":0,"byteLength":12,"byteOffset":1404},{"buffer":0,"byteLength":48,"byteOffset":1416},{"buffer":0,"byteLength":12,"byteOffset":1464},{"buffer":0,"byteLength":72,"byteOffset":1476},{"buffer":0,"byteLength":24,"byteOffset":1548},{"buffer":0,"byteLength":48,"byteOffset":1572},{"buffer":0,"byteLength":12,"byteOffset":1620},{"buffer":0,"byteLength":48,"byteOffset":1632},{"buffer":0,"byteLength":12,"byteOffset":1680},{"buffer":0,"byteLength":96,"byteOffset":1692},{"buffer":0,"byteLength":36,"byteOffset":1788}],"buffers":[{"byteLength":1824,"uri":"data:application/octet-stream;base64,"}]}